PathFileType	4	(X/Y/Z)	C:/Users/beibeiliu/ov580/test_trc/User3\sequence.42_training_dense_left.trc
DataRate	CameraRate	NumFrames	NumMarkers	Units	OrigDataRate	OrigDataStartFrame	OrigNumFrames
120	120	16	19	mm	120	76	101
Frame#	Time	ThumbCMC			ThumbMCP			ThumbIP			ThumbTip			IndexMCP			IndexPIP			IndexTip			MiddleMCP			MiddlePIP			MiddleTip			RingMCP			RingPIP			RingTip			PinkyMCP			PinkyPIP			PinkyTip			BackHand1			BackHand2			BackHand3	
		X0	Y0	Z0	X1	Y1	Z1	X2	Y2	Z2	X3	Y3	Z3	X4	Y4	Z4	X5	Y5	Z5	X6	Y6	Z6	X7	Y7	Z7	X8	Y8	Z8	X9	Y9	Z9	X10	Y10	Z10	X11	Y11	Z11	X12	Y12	Z12	X13	Y13	Z13	X14	Y14	Z14	X15	Y15	Z15	X16	Y16	Z16	X17	Y17	Z17	X18	Y18	Z18	
75	0.625	-129.47	34.7735	30.7626	-113.425	26.023	0.279093	-103.647	10.6358	-24.0725	-95.9795	-14.8161	-31.3291	-170.903	-9.22075	-18.0222	-177.057	-18.9695	-45.6282	-180.518	-24.5265	-69.2857	-146.239	-28.1195	-22.1199	-114.084	-28.4087	-29.962	-102.077	-7.20917	4.00549	-132.144	-40.6449	-4.74404	-102.611	-30.6329	-7.95893	-101.846	-10.7342	23.0626	-126.908	-48.2713	11.3559	-100.043	-39.161	9.92158	-103.966	-15.2663	30.3929	-160.942	-23.5646	40.0729	-153.482	-9.16326	73.1231	-160.967	11.4267	46.6925	
76	0.633333	-113.508	35.5658	30.4511	-91.1184	26.2623	6.59566	-80.8517	3.57416	-12.7733	-73.3355	-20.4966	-20.6597	-144.707	2.36989	-26.8559	-144.687	-7.4813	-54.3851	-142.113	-20.1048	-74.9989	-123.166	-25.6681	-24.5885	-91.0606	-29.4079	-22.0697	-85.9956	-8.90044	10.8136	-118.68	-35.6086	-5.52549	-86.2981	-35.063	4.3669	-90.4321	-16.2431	29.4207	-115.099	-49.6153	12.1838	-89.8317	-41.18	17.6866	-97.1626	-16.3479	40.8578	-152.75	-17.0932	38.054	-154.062	-9.48596	65.3718	-151.751	15.3761	36.0956	
77	0.641667	-92.068	37.3159	42.5401	-66.7919	24.3119	20.3439	-51.3597	4.1252	1.09102	-51.7828	-20.0515	-6.37643	-110.09	16.9368	-28.5972	-102.417	11.2955	-55.957	-95.3488	0.874396	-78.9889	-97.6362	-10.0508	-24.3656	-68.6063	-21.415	-16.7717	-71.9295	-10.6298	21.2141	-99.0976	-26.7671	-5.82919	-73.7895	-32.4434	12.2041	-81.8303	-12.8231	38.0802	-103.936	-38.3378	7.30103	-80.3582	-35.8785	22.6344	-89.114	-16.7923	41.0859	-143.197	-2.51269	26.5453	-145.864	5.27779	57.9213	-131.54	29.4023	32.6887	
78	0.65	-70.3896	39.8145	51.8712	-48.0262	20.121	29.3938	-36.2338	0.510629	11.5405	-43.2037	-21.4587	-0.328369	-77.9569	33.4835	-26.5327	-66.5174	31.6036	-48.6843	-56.2284	22.762	-70.2659	-80.5958	1.34568	-21.7693	-52.3405	-17.9632	-8.83264	-59.4422	-7.38854	26.2988	-87.8859	-12.6414	-8.31843	-66.8471	-29.8652	11.833	-72.7655	-13.7407	38.174	-99.2677	-24.3055	3.36616	-75.9003	-30.0489	22.711	-85.0572	-12.1253	43.0615	-125.084	17.3811	22.716	-133.776	20.8501	49.6787	-107.219	44.2014	35.5919	
79	0.658333	-59.3704	36.5194	56.9446	-36.8278	18.0182	36.9082	-24.4309	-0.477038	13.9592	-35.1682	-18.7318	-3.74792	-57.1006	46.0599	-17.9375	-41.2525	42.5093	-44.3211	-29.0703	39.2039	-61.4613	-64.7129	15.1151	-21.9389	-44.6341	-8.53253	-13.7745	-56.49	-7.09097	23.4899	-74.1293	-0.817811	-12.2508	-64.4453	-21.3942	7.428	-69.275	-7.61423	36.0338	-91.6902	-9.63791	-3.71859	-76.5679	-24.2405	15.1635	-83.2333	-6.49609	38.5637	-113.664	33.0444	20.6807	-123.087	38.0857	46.5103	-91.9279	54.8728	39.4831	
80	0.666667	-53.8038	36.7105	59.1268	-30.867	20.2657	38.7865	-26.6052	8.23816	9.06753	-36.1155	-4.8123	-9.75764	-44.6204	62.4087	-15.1669	-30.8686	59.5376	-39.3897	-15.5184	54.1651	-58.7755	-59.5394	34.9076	-22.7173	-47.0728	3.67609	-20.4967	-55.507	1.46703	16.1184	-73.5866	21.6588	-14.0822	-63.8574	-5.04293	-3.96256	-69.4497	3.38973	30.4025	-92.4136	7.98275	-11.0024	-78.4236	-6.52021	4.07595	-84.8235	1.89119	32.7655	-105.918	53.5292	18.7159	-112.585	51.1362	52.4396	-80.2115	63.1126	48.1716	
81	0.675	-49.7646	38.8531	59.4315	-33.8433	28.5607	30.1383	-28.6443	22.8107	0.312445	-39.1828	13.9894	-20.9594	-50.8421	76.6527	-8.81662	-41.7744	79.1715	-35.1996	-30.6772	71.9073	-61.4152	-64.9497	56.1445	-23.1334	-53.3049	26.2376	-32.0784	-63.9383	9.50254	2.26955	-84.6065	39.2344	-17.1026	-76.3535	10.0959	-16.6009	-73.7122	9.44708	20.7878	-97.7583	29.0785	-13.1796	-86.0058	7.29075	-6.49648	-89.6431	7.79508	25.5717	-109.229	62.7966	28.9143	-116.422	54.2891	57.1493	-79.8857	66.2501	52.6084	
82	0.683333	-55.6144	44.158	55.0696	-42.2966	38.6114	28.729	-36.4167	37.8025	-5.18882	-45.3688	33.7196	-27.155	-66.7977	88.1453	-8.4959	-59.8565	92.5767	-35.7539	-55.9032	84.8132	-62.7234	-86.3137	72.1069	-20.3817	-74.4709	44.569	-42.5034	-74.2094	17.27	-15.6373	-101.934	53.6187	-19.4495	-94.3771	25.8247	-28.8734	-81.8606	12.1571	0.298413	-119.011	41.9645	-9.4636	-104.939	17.7487	-18.3372	-96.7896	9.28091	9.13441	-115.134	68.0004	34.0459	-118.691	56.2261	64.7188	-88.3737	68.8167	57.1306	
83	0.691667	-64.3103	42.971	54.2312	-45.5474	42.9415	25.9844	-40.4517	43.8816	-3.30843	-41.1235	39.9061	-28.893	-82.9033	84.1768	-11.723	-80.6499	88.0219	-42.1207	-76.2872	79.8785	-67.9822	-108.174	75.7442	-24.1849	-102.304	57.069	-50.5852	-93.1958	22.6977	-42.7267	-122.212	59.4551	-17.1222	-118.1	37.7939	-39.6946	-103.089	9.66531	-23.8091	-139.95	42.9815	-6.86548	-132.526	23.7991	-25.7423	-110.329	7.81217	-10.2919	-128.405	62.398	36.9159	-128.435	50.9917	66.6778	-95.3503	67.3759	53.6583	
84	0.7	-69.0651	43.9516	47.6263	-51.2602	42.06	22.6646	-37.8195	42.3011	-3.9597	-36.9316	36.5895	-26.6902	-94.406	75.5383	-17.7405	-94.2023	74.8104	-51.4933	-88.974	67.1984	-73.5479	-118.58	72.1086	-25.8148	-121.702	62.1048	-54.4693	-111.833	26.4887	-67.8765	-139.058	57.8605	-17.3346	-137.61	41.8803	-46.0442	-125.546	12.0959	-49.6305	-152.867	44.1278	-4.81025	-156.97	28.4487	-26.974	-137.639	7.72704	-33.2361	-137.473	60.4916	36.8182	-131.897	49.5557	68.0829	-100.88	64.6773	49.4294	
85	0.708333	-74.8221	36.6755	47.2101	-59.3521	34.6309	21.5816	-46.1672	31.9519	-3.01382	-37.0655	27.7794	-25.4274	-103.129	62.8679	-25.4651	-101.195	61.1857	-51.2608	-98.9312	51.3936	-78.1769	-126.992	63.5701	-26.1242	-129.65	56.1766	-59.5301	-128.74	32.741	-82.0212	-150.104	51.4645	-17.8417	-151.055	43.9867	-46.8082	-151.794	16.7176	-65.7979	-167.167	38.2095	-3.61351	-171.725	29.3512	-24.81	-166.808	5.43945	-45.0677	-143.104	53.0307	36.548	-137.071	49.1053	62.5593	-105.876	57.5324	47.6861	
86	0.716667	-81.6865	28.8237	46.3878	-61.4833	25.4017	21.959	-45.11	21.2601	-0.0345681	-36.3512	15.9658	-25.3299	-107.442	49.0088	-27.5285	-100.343	47.3461	-57.1882	-100.328	37.048	-83.6082	-134.81	50.7033	-27.9133	-134.957	47.3622	-57.7309	-139.584	31.2078	-91.9321	-151.98	41.5188	-20.298	-160.242	36.1053	-49.0296	-164.452	23.1871	-69.8784	-168.2	30.2606	-3.73371	-176.552	23.6876	-27.5232	-185.089	8.82683	-45.4853	-146.483	45.1484	34.7158	-140.752	45.9826	59.2654	-109.457	51.8447	42.4551	
87	0.725	-81.3144	22.8377	45.0269	-59.967	17.9815	22.3962	-48.4063	12.018	-1.4588	-32.5643	5.55639	-18.7187	-106.129	36.8875	-33.2426	-101.61	32.7937	-58.7214	-98.2537	23.2473	-84.8847	-130.793	39.4315	-35.0652	-131.575	35.4194	-62.5336	-135.106	23.9544	-91.2063	-154.589	30.3954	-22.7964	-157.358	26.9729	-48.8326	-163.473	15.8738	-75.0939	-168.218	19.5847	-5.79863	-180.571	13.3315	-28.11	-187.973	2.98925	-46.4844	-148.009	40.1232	29.4355	-143.575	39.8741	59.6854	-111.963	44.9198	38.265	
88	0.733333	-79.3934	18.4444	42.5627	-59.9288	12.1587	23.8858	-39.3434	6.08473	-0.965656	-30.0135	-3.67244	-18.9373	-102.908	22.3444	-32.2053	-94.7306	16.1232	-62.739	-94.8479	8.1164	-83.3316	-130.099	23.8627	-39.4242	-129.355	17.698	-66.4993	-127.463	8.61422	-92.4459	-150.511	14.9599	-23.7446	-151.819	10.5346	-49.2915	-158.203	0.362424	-74.2407	-163.911	7.64683	-7.86031	-172.735	1.06404	-27.0653	-184.236	-8.74383	-45.5923	-143.183	31.5774	26.2617	-143.556	34.9246	53.4731	-109.592	36.7176	30.5056	
89	0.741667	-78.6649	16.2351	42.2346	-58.2674	10.36	23.7005	-40.4612	2.38026	0.6121	-26.7857	-5.50531	-12.002	-100.005	19.0313	-33.5761	-93.0952	12.926	-62.3755	-87.3162	5.08575	-86.3512	-126.313	20.8267	-39.9363	-122.977	14.9145	-67.0137	-125.632	5.16066	-94.6334	-144.912	12.799	-27.0107	-150.961	7.77878	-51.2127	-152.672	-2.84435	-75.7471	-163.857	3.7495	-5.78611	-170.712	-2.42343	-29.0555	-176.964	-12.1539	-51.2341	-144.197	27.3807	24.4798	-143.339	32.9565	52.7634	-108.012	35.7874	30.1081	
90	0.75	-76.392	18.5153	44.8356	-59.4198	10.554	23.4458	-36.635	3.4817	0.180802	-27.1193	-4.75233	-16.2521	-101.78	25.2204	-32.0663	-94.7173	21.7752	-58.6332	-90.4902	12.0007	-86.6391	-125.153	26.2112	-35.0035	-124.926	22.5242	-63.3623	-126.391	11.7069	-96.7574	-144.154	18.7527	-24.7107	-150.637	14.8462	-52.2913	-157.371	3.73529	-80.5313	-166.003	9.00685	-10.7105	-169.439	4.8979	-29.239	-176.612	-4.38046	-49.7432	-139.149	30.7155	23.9569	-143.419	33.4349	50.8423	-106.233	39.3789	32.3168	
